PathFileType	4	(X/Y/Z)	T1_P2_NoVision_NoMovement_2_0-733.trc
DataRate	CameraRate	NumFrames	NumMarkers	Units	OrigDataRate	OrigDataStartFrame	OrigNumFrames
60	60	4	27	m	60	183	733
Frame#	Time	RHip			RKnee			RAnkle			RBigToe			RSmallToe			RHeel			LHip			LKnee			LAnkle			LBigToe			LSmallToe			LHeel			Neck			Head			Nose			RShoulder			RElbow			RWrist			RThumb			RIndex			RPinky			LShoulder			LElbow			LWrist			LThumb			LIndex			LPinky		
		X1	Y1	Z1	X2	Y2	Z2	X3	Y3	Z3	X4	Y4	Z4	X5	Y5	Z5	X6	Y6	Z6	X7	Y7	Z7	X8	Y8	Z8	X9	Y9	Z9	X10	Y10	Z10	X11	Y11	Z11	X12	Y12	Z12	X13	Y13	Z13	X14	Y14	Z14	X15	Y15	Z15	X16	Y16	Z16	X17	Y17	Z17	X18	Y18	Z18	X19	Y19	Z19	X20	Y20	Z20	X21	Y21	Z21	X22	Y22	Z22	X23	Y23	Z23	X24	Y24	Z24	X25	Y25	Z25	X26	Y26	Z26	X27	Y27	Z27
184	3.066666666666667	465.14201384696247	3608.1516420752	522.7500737892259	868.2803912549699	3666.0481205632764	545.2440679347156	1250.3332335219852	3750.9425368013217	619.0954663887019	1318.9716818739337	3610.148360891869	561.2149062153319	1309.826952036534	3672.5791749033483	520.4411542929694	1281.2865341603176	3732.6054642483596	622.0502461250643	475.4521734291668	3496.324502037901	722.8905812608081	877.0118428720091	3535.2561059792197	736.3394647454322	1243.2060073092225	3609.0656285692344	726.1325049992857	1300.6774304330527	3476.2516995485744	666.1468228388336	1270.6595668979328	3441.707286281706	703.1850811891745	1267.3969503828412	3604.1817069344925	699.3627745355205	-108.2921930284991	3540.3657004712813	642.6032069583721	-367.92170263952187	3483.2839182885427	623.1886879869145	-224.60011214727402	3431.139017035523	585.2673369273913	-32.07294121912175	3630.056281223311	511.4038618062888	209.581081149547	3585.0909882421015	407.66424700952945	368.6483414966342	3442.405417025247	487.23198004594866	440.6495391990309	3387.494922008631	559.7780064543142	455.2778978815259	3404.974866192056	583.5849168009792	476.01772368300635	3384.1766345892943	560.4437795076204	-15.425026047710299	3493.923013207651	799.2075983220267	232.77770224839486	3364.594439540054	754.2226728959553	380.95674395864467	3376.656208042836	593.5009884026464	425.9814912374238	3380.3704486963798	494.7458737116681	455.261323295626	3411.5554578008064	503.4733800094795	483.13620509418524	3375.1691130617355	550.3411143969782
185	3.0833333333333335	465.4138639941357	3608.244261567605	522.7994496538398	879.0619739146922	3685.0150046601507	559.962678368179	1256.6248932011988	3754.02345378053	621.1890283678042	1320.534582541582	3616.573127692966	560.0432349919162	1316.8097015272715	3677.532181604699	521.6572548114276	1281.8083089049253	3732.9483916184527	621.861780412866	475.575279908117	3496.165083492533	722.8680550949973	876.8522598203268	3535.0274443413373	736.0839603386631	1243.1120562485246	3609.564665692157	726.2597855183841	1293.2493095542295	3462.1109975118084	652.8581661147583	1270.6784710054123	3441.7983436156705	703.1076655638246	1267.6808810624411	3604.5584917297297	699.1924342089945	-108.22720290924273	3540.350711055855	642.6808911282332	-367.92104316905613	3483.5052307271844	623.2509453099535	-220.7712431439945	3432.6025336741804	585.8741043059359	-32.322392590499106	3609.076665906806	506.6828681471245	209.57404360209955	3585.01875272907	407.6623373830883	368.7672599338693	3442.2699497077106	487.19244596621866	431.8316697697095	3379.2759868082376	564.8608061051947	455.5341975737537	3405.3769861744217	583.9687537237819	477.3921274283834	3370.6252353079685	548.790333518821	-16.208712929170243	3481.116546644304	781.0264500322276	232.8023934008496	3364.3069093785352	753.9883406438455	380.92349035067946	3376.3672340586263	593.3875886030762	426.0355301163478	3380.0961310663283	494.795946680335	460.23493807473466	3414.2182730085506	504.3483793159564	488.67083854124394	3378.8990856206574	551.7337937501479
186	3.1	465.241521850904	3608.095863276723	522.7740339554969	873.2380594648841	3667.7664064830383	546.552832472331	1256.7823667930372	3754.1219261773804	621.2863836878573	1312.9635548356027	3600.8118318543698	546.7468809916254	1315.746775054499	3675.0147233765183	521.9651136368816	1282.0040855570708	3733.697549962781	622.4432257190491	475.3923922689358	3496.0316716486914	722.7938207632711	876.5712342254809	3534.62004359415	735.8901600328395	1243.325058972468	3609.4717694679052	726.2654310055422	1306.52635135548	3478.816247209371	667.9632896477488	1270.7746156149215	3441.831496162299	703.2746393963727	1279.4949355176468	3610.476642508723	702.0848546374887	-108.240854616524	3540.3393407797275	642.6452153067466	-367.9249353860282	3483.3623133009123	623.1572063491337	-225.0494742562777	3417.148468034881	582.5238640206505	-32.140257457190025	3630.0535825650513	511.41664202562265	209.59792508356733	3584.825962403075	407.70554273654903	369.0246152845672	3442.144599239012	487.31030445738014	433.3680788925066	3365.742235920487	553.2290524860439	455.40192740891405	3404.6539616037903	583.5346994536847	477.2584592269365	3370.2580832299795	548.7189623870516	-16.256314731585825	3478.5272450652424	784.7899451656538	232.84783676934978	3364.2956590100753	754.0311349384399	381.01559188821534	3376.1770645483225	593.2981732451857	425.9166528587914	3379.6891441427124	494.57052640561227	455.45776919705247	3411.02993643941	503.08603474880744	483.34160288672007	3374.9055762309745	550.2480940212505
187	3.1166666666666667	464.9085916339341	3607.914828204739	522.643400883305	861.6476979569056	3661.6715630047383	543.5878195146458	1264.2488660751792	3776.8359672794404	627.1977281235169	1315.8534265607773	3615.1175272377177	558.4851738195094	1310.5268723942713	3674.5620419292973	521.0317792646318	1286.8918840315553	3762.2032048016067	631.4692696467823	475.2023866484442	3495.8164515431927	722.6869758118969	876.4932167634878	3534.4179630843	735.948475824235	1243.0395093590867	3609.3927783054664	726.1722350533425	1308.1891463469017	3497.3035086800805	672.0487942388801	1270.6814457142175	3441.7293697755204	703.0242387479699	1267.6336394716434	3605.0455538400606	699.5810219622012	-108.29410756948245	3540.5763429735453	642.7640254888636	-367.89916645720194	3483.489610202112	623.2230094615019	-225.10238690408306	3417.053141413478	582.4952551141865	-32.130891065565706	3630.2861268959437	511.52081171666117	207.87678971567433	3565.5515466890147	403.73880346918315	372.9388390667932	3437.6721016786883	485.10770278867454	433.52163572983596	3365.715247458276	553.2336747003903	455.57336054799487	3404.728461855463	583.6020475791057	477.3719369422903	3369.8195572021505	548.4530837831904	-16.243853704201992	3478.664204036018	784.8914147391471	232.8469034824199	3364.355406795441	754.0173375225864	380.99331135546805	3375.8708901777477	593.1258374493458	426.37845215785654	3383.0965801917673	491.49398118691835	465.13193627398044	3416.6317306326464	505.24289780988033	489.01521944557055	3378.409860678782	551.4112861899919
